Results
version=1
nRows=9
nColumns=24
inDegrees=yes
endheader
time	pelvis_tilt	pelvis_list	pelvis_rotation	pelvis_tx	pelvis_ty	pelvis_tz	hip_flexion_r	hip_adduction_r	hip_rotation_r	knee_angle_r	ankle_angle_r	subtalar_angle_r	mtp_angle_r	hip_flexion_l	hip_adduction_l	hip_rotation_l	knee_angle_l	ankle_angle_l	subtalar_angle_l	mtp_angle_l	lumbar_extension	lumbar_bending	lumbar_rotation
      0.44600000	     -4.09817467	      5.41697627	     -3.34549858	     -0.77444727	      1.06051468	      0.32598044	     29.02137220	     -1.58542362	     -4.00532824	     -9.99152568	      1.67415757	     -3.86373636	     -0.13802564	     -5.69760158	      9.95691133	      2.52590586	     -7.06059226	      7.95160976	    -10.57885712	     -0.37254684	      7.08050268	     -2.28210336	      0.06238583
      0.45016667	     -4.12654573	      5.34836563	     -3.38163957	     -0.76859934	      1.05997711	      0.32619825	     28.88245347	     -1.44575431	     -3.95584983	     -9.79316191	      1.65537700	     -3.59149975	     -0.14827963	     -5.81040836	      9.89262303	      2.58871607	     -7.46621148	      8.11772924	    -10.75156580	     -0.45339285	      7.16126467	     -2.16136257	     -0.04190006
      0.45433333	     -4.13231940	      5.36406861	     -3.40359309	     -0.76305707	      1.05942566	      0.32636588	     28.78432999	     -1.40431719	     -3.90795028	     -9.75024824	      1.63149544	     -3.50645630	     -0.15047713	     -5.87550763	      9.92201753	      2.61781190	     -7.96726080	      8.13747607	    -10.79084059	     -0.47640053	      7.21351081	     -2.12707064	     -0.06224579
      0.45850000	     -4.15147472	      5.30794980	     -3.45681885	     -0.75721373	      1.05891397	      0.32658034	     28.65924921	     -1.27568776	     -3.78172154	     -9.72171060	      1.49480485	     -3.24445771	     -0.15610454	     -5.94805303	      9.86817760	      2.63544718	     -8.46832604	      8.31442302	    -10.83681638	     -0.55148152	      7.24977362	     -2.04540599	     -0.14311000
      0.46266667	     -4.14357868	      5.31017822	     -3.48174474	     -0.75156279	      1.05842392	      0.32670865	     28.55015046	     -1.23031002	     -3.69948010	     -9.82431829	      1.44941363	     -3.18502083	     -0.15663610	     -5.99579064	      9.87989955	      2.65756711	     -9.04595314	      8.32146437	    -10.84234419	     -0.57004727	      7.30798112	     -2.00252188	     -0.15718040
      0.46683333	     -4.14359810	      5.29018272	     -3.49969298	     -0.74582833	      1.05796820	      0.32683595	     28.43528297	     -1.16587080	     -3.56998011	     -9.96410155	      1.36850966	     -3.11164904	     -0.15636831	     -6.01602734	      9.85919413	      2.66295568	     -9.67242165	      8.34138063	    -10.83967182	     -0.58671810	      7.35334710	     -1.94714984	     -0.17394662
      0.47100000	     -4.13417696	      5.26866926	     -3.52373147	     -0.74005770	      1.05755153	      0.32695749	     28.30985750	     -1.10296521	     -3.41268838	    -10.15124972	      1.25015362	     -3.03378089	     -0.15546213	     -6.02329634	      9.83410980	      2.63716089	    -10.34721955	      8.36507187	    -10.81216009	     -0.60274887	      7.39520086	     -1.87784967	     -0.19446975
      0.47516667	     -4.11847722	      5.24213109	     -3.55591212	     -0.73426178	      1.05716682	      0.32707172	     28.18124081	     -1.03738209	     -3.24431241	    -10.38758690	      1.10754321	     -2.96353209	     -0.15396464	     -6.00855255	      9.80108267	      2.57929809	    -11.07793649	      8.37877729	    -10.75944489	     -0.61618630	      7.43206808	     -1.79808569	     -0.21594098
      0.47933333	     -4.09611417	      5.18068363	     -3.77637881	     -0.72827133	      1.05677079	      0.32786994	     28.02369787	     -0.80340773	     -2.72054387	    -10.58854144	      0.51018168	     -3.05650988	     -0.13414668	     -5.96581689	      9.69472960	      1.97351737	    -11.87306280	      8.71701760	     -9.69775116	     -0.74295585	      7.48154773	     -1.80877876	     -0.27989892
